# xmcd
#
# Track frame offsets:
# 150
# 20603
# 40342
# 61032
# 86452
# 109526
# 128908
# 154133
# 169984
# 190653
# 213992
#
# Disc length: 3041 seconds
#
#
# Revision: 0
# Processed by: cddbd v1.5.2PL0 Copyright (c) Steve Scherf et al.
# Submitted via: FreeRIP 2.951 
#
DISCID=8a0bdf0b
DTITLE=Halfway to Hazard - Halfway to Hazard
DYEAR=2007
DGENRE=Country
TTITLE0=Countrified
TTITLE1=Takin' Me On
TTITLE2=Cold
TTITLE3=Dasiy
TTITLE4=I'm Tired
TTITLE5=Davil and the Cross
TTITLE6=Die By My Own Hand
TTITLE7=Country 'Til The Day We Die
TTITLE8=Got Back Up
TTITLE9=Burn It Down
TTITLE10=Welcome to Nashville
EXTD=
EXTT0=
EXTT1=
EXTT2=
EXTT3=
EXTT4=
EXTT5=
EXTT6=
EXTT7=
EXTT8=
EXTT9=
EXTT10=
PLAYORDER=
